<svg width="41" height="41" viewBox="0 0 41 41" fill="none" xmlns="http://www.w3.org/2000/svg">
<rect width="41" height="41" rx="5" fill="#F5F5F5"/>
<path d="M24.3647 9.62129C24.5675 9.87285 24.6709 10.2124 24.8768 10.8905L29.3903 25.7164C27.6951 24.8364 25.8755 24.2203 23.9944 23.8897L21.0561 13.9595C21.0329 13.8801 20.9846 13.8104 20.9184 13.7608C20.8522 13.7113 20.7717 13.6845 20.689 13.6846C20.6063 13.6847 20.5258 13.7116 20.4598 13.7613C20.3937 13.8111 20.3455 13.8809 20.3225 13.9603L17.4195 23.8847C15.5301 24.2142 13.7025 24.8312 12 25.7142L16.5347 10.8874C16.7423 10.2101 16.8457 9.87118 17.0483 9.61962C17.2272 9.39804 17.4599 9.22597 17.7242 9.11984C18.0228 9 18.3777 9 19.0862 9H22.3256C23.0346 9 23.3895 9 23.6892 9.12067C23.9535 9.22707 24.186 9.39943 24.3647 9.62129Z" fill="url(#paint0_linear_975_30)"/>
<path d="M24.9046 26.4215C24.1605 27.0582 22.6754 27.4921 20.9649 27.4921C18.8661 27.4921 17.1061 26.8383 16.6394 25.959C16.4727 26.4629 16.4352 27.0394 16.4352 27.4083C16.4352 27.4083 16.3253 29.2163 17.5831 30.4741C17.5831 30.3189 17.6137 30.1652 17.6731 30.0217C17.7325 29.8783 17.8195 29.748 17.9293 29.6382C18.0391 29.5285 18.1694 29.4414 18.3129 29.382C18.4563 29.3227 18.61 29.2921 18.7653 29.2922C19.8845 29.2922 19.8838 30.2682 19.883 31.0612V31.1313C19.883 32.3344 20.6181 33.3653 21.6635 33.8C21.5022 33.4691 21.4187 33.1057 21.4192 32.7375C21.4192 31.5896 22.0924 31.1629 22.8756 30.6663C23.4986 30.2715 24.1905 29.8326 24.6668 28.9527C24.9239 28.4786 25.0583 27.9476 25.0576 27.4083C25.0577 27.0734 25.0061 26.7406 24.9046 26.4215Z" fill="#FF5D01"/>
<path d="M24.9046 26.4215C24.1605 27.0582 22.6754 27.4921 20.9649 27.4921C18.8661 27.4921 17.1061 26.8383 16.6394 25.959C16.4727 26.4629 16.4352 27.0394 16.4352 27.4083C16.4352 27.4083 16.3253 29.2163 17.5831 30.4741C17.5831 30.3189 17.6137 30.1652 17.6731 30.0217C17.7325 29.8783 17.8195 29.748 17.9293 29.6382C18.0391 29.5285 18.1694 29.4414 18.3129 29.382C18.4563 29.3227 18.61 29.2921 18.7653 29.2922C19.8845 29.2922 19.8838 30.2682 19.883 31.0612V31.1313C19.883 32.3344 20.6181 33.3653 21.6635 33.8C21.5022 33.4691 21.4187 33.1057 21.4192 32.7375C21.4192 31.5896 22.0924 31.1629 22.8756 30.6663C23.4986 30.2715 24.1905 29.8326 24.6668 28.9527C24.9239 28.4786 25.0583 27.9476 25.0576 27.4083C25.0577 27.0734 25.0061 26.7406 24.9046 26.4215Z" fill="url(#paint1_linear_975_30)"/>
<defs>
<linearGradient id="paint0_linear_975_30" x1="25.7811" y1="8.21371" x2="20.6948" y2="25.7163" gradientUnits="userSpaceOnUse">
<stop stop-color="#000014"/>
<stop offset="1" stop-color="#150426"/>
</linearGradient>
<linearGradient id="paint1_linear_975_30" x1="28.2547" y1="21.2467" x2="23.8497" y2="30.4683" gradientUnits="userSpaceOnUse">
<stop stop-color="#FF1639"/>
<stop offset="1" stop-color="#FF1639" stop-opacity="0"/>
</linearGradient>
</defs>
</svg>
