<svg width="41" height="41" viewBox="0 0 41 41" fill="none" xmlns="http://www.w3.org/2000/svg">
<rect width="41" height="41" rx="5" fill="#F5F5F5"/>
<path d="M9.78666 6C7.64757 6 6.06467 7.87227 6.13555 9.9027C6.20364 11.8533 6.11519 14.3799 5.47919 16.4402C4.84128 18.5065 3.76229 19.8154 2 19.9835V21.8808C3.76229 22.049 4.84128 23.3579 5.47919 25.4243C6.11519 27.4846 6.20364 30.0109 6.13555 31.9617C6.06467 33.9918 7.64757 35.8644 9.78695 35.8644H31.7055C33.8447 35.8644 35.4272 33.9921 35.3563 31.9617C35.2884 30.0111 35.3767 27.4846 36.0127 25.4243C36.651 23.358 37.7271 22.0488 39.4894 21.8808V19.9835C37.7271 19.8154 36.651 18.5065 36.0128 16.4402C35.3767 14.3802 35.2884 11.8535 35.3563 9.9027C35.4272 7.87256 33.8447 6 31.7055 6H9.78636H9.78666ZM27.4166 24.3834C27.4166 27.1793 25.3313 28.8748 21.8705 28.8748H15.9791C15.8107 28.8747 15.6491 28.8078 15.53 28.6886C15.4108 28.5695 15.3439 28.4079 15.3439 28.2394V13.625C15.3439 13.4564 15.4108 13.2948 15.53 13.1756C15.6491 13.0564 15.8107 12.9895 15.9793 12.9894H21.8368C24.7225 12.9894 26.6163 14.5527 26.6163 16.9526C26.6163 18.6371 25.3423 20.1452 23.7192 20.4092V20.4973C25.9289 20.7396 27.4166 22.2698 27.4166 24.3834ZM21.2279 15.0037H17.869V19.7485H20.6983C22.8852 19.7485 24.0913 18.8678 24.0913 17.2935C24.0913 15.8184 23.0541 15.0037 21.2279 15.0037ZM17.8691 21.6312V26.8599H21.3518C23.6287 26.8599 24.8351 25.9462 24.8351 24.2291C24.8351 22.5116 23.5952 21.6309 21.2054 21.6309H17.8691V21.6312Z" fill="#7E13F8"/>
</svg>
