<svg width="41" height="41" viewBox="0 0 41 41" fill="none" xmlns="http://www.w3.org/2000/svg">
<rect width="41" height="41" rx="5" fill="#F5F5F5"/>
<path d="M27.7028 4.55557H25.7414L27.7812 6.76902V7.82276H23.58V6.58893H25.6195L23.58 4.37548V3.32068H27.7028V4.55557ZM22.747 4.55557H20.7857L22.8254 6.76902V7.82276H18.624V6.58893H20.6637L18.624 4.37548V3.32068H22.747V4.55557ZM17.8399 4.60604H15.7234V6.5374H17.8399V7.82276H14.2189V3.32068H17.8399V4.60604Z" fill="#131313"/>
<path d="M11.3347 34L9.18396 9.87781H32.8158L30.6632 33.996L20.9854 36.6794L11.3347 34Z" fill="#1572B6"/>
<path d="M21.0002 34.6285L28.82 32.4605L30.6597 11.8503H21.0002V34.6285Z" fill="#33A9DC"/>
<path d="M21 20.5897H24.9148L25.1855 17.5602H21V14.6017H28.4186L28.3477 15.3954L27.6207 23.5479H21V20.5897Z" fill="white"/>
<path d="M21.0178 28.2731L21.0048 28.2769L17.71 27.387L17.4991 25.0275H14.5297L14.9443 29.6727L21.0043 31.3549L21.0181 31.3509L21.0178 28.2731Z" fill="#EBEBEB"/>
<path d="M24.6635 23.4229L24.307 27.3849L21.0074 28.2756V31.3536L27.0725 29.6727L27.1171 29.1728L27.6319 23.4229H24.6635Z" fill="white"/>
<path d="M21.0103 14.6017V17.56H13.8642L13.8047 16.8951L13.67 15.3954L13.5991 14.6017H21.0103ZM21 20.5899V23.5485H17.7469L17.6876 22.8836L17.5527 21.3836L17.4818 20.5899H21Z" fill="#EBEBEB"/>
</svg>
