<svg width="82" height="126" viewBox="0 0 82 126" fill="none" xmlns="http://www.w3.org/2000/svg">
<path d="M50.0268 0.113113C49.2132 0.214813 48.3656 0.508629 47.6198 0.938042C46.9192 1.34486 45.8117 2.57661 45.4501 3.33374C44.8512 4.61069 44.8399 4.7802 44.9077 13.086L44.9755 20.7364L44.7269 21.211C44.5913 21.4936 44.2862 21.8326 44.015 22.0021L43.5403 22.3185L35.178 22.3863C25.9229 22.4541 25.9907 22.4541 22.7927 23.2338C18.4759 24.2961 14.1705 26.4319 10.7464 29.2118C6.05676 33.0313 2.47451 38.4894 0.994156 44.0945C-1.46934 53.3947 0.711645 63.3391 6.80259 70.6166C7.85353 71.871 10.0458 73.9954 11.2663 74.9447C15.7751 78.4252 21.0977 80.5045 26.8609 81.0243C28.7142 81.1825 53.7786 81.1825 54.5696 81.013C56.6263 80.5836 58.2874 78.9224 58.7168 76.8658C58.909 75.9617 58.8751 72.7524 58.6716 71.8823C58.1857 69.8369 56.5924 68.1531 54.4905 67.4525C54.1289 67.3282 51.3264 67.2943 40.5909 67.2378C25.7647 67.1587 26.7705 67.2152 24.4652 66.4467C17.8996 64.2545 13.4925 57.9714 13.7863 51.1911C13.9558 47.1908 15.4587 43.8006 18.3742 40.8964C20.3179 38.9415 22.1599 37.8001 24.7025 36.9526C27.2564 36.0937 26.6236 36.1389 39.3479 36.0598C51.575 35.9807 50.8743 36.0146 52.5129 35.427C53.9368 34.9185 55.6205 33.7093 56.6263 32.455C58.0049 30.7486 58.7055 28.8728 58.8073 26.6127C58.8412 25.8668 58.8299 19.5725 58.7846 12.6227L58.7055 0.000106812L54.7278 0.0114059C52.5468 0.0227051 50.4336 0.0679092 50.0268 0.113113Z" fill="#F9F9F9"/>
<path d="M27.1547 45.1001C26.9174 45.1566 26.3637 45.3939 25.9456 45.6086C24.5895 46.3205 23.5386 47.7444 23.2447 49.2587C23.0639 50.2079 23.1091 53.3833 23.3012 54.2309C23.742 56.0954 25.098 57.6436 26.9852 58.4459L27.5954 58.7058L40.9299 58.7623C54.2193 58.8301 54.2645 58.8301 55.4849 59.0787C61.881 60.4235 66.582 65.0793 67.9493 71.4301C68.2657 72.9105 68.2431 75.8486 67.9041 77.3968C67.3843 79.6908 66.469 81.7022 65.0903 83.5216C62.7963 86.5614 59.5305 88.6633 55.564 89.6465C54.6261 89.8725 54.2645 89.8838 43.077 89.9516C31.7314 90.0194 31.5393 90.0194 30.6804 90.268C27.5389 91.1381 25.3353 92.9575 24.0471 95.7374C23.4708 96.9691 23.2447 97.8845 23.1656 99.3309C23.1317 99.9864 23.143 106.247 23.1882 113.253L23.2673 126H27.6406C32.4433 126 32.6919 125.977 34.0028 125.311C34.9181 124.847 35.9917 123.763 36.4663 122.847C37.133 121.514 37.133 121.423 37.0652 113.185C37.0313 109.083 37.0313 105.524 37.0765 105.298C37.1669 104.8 37.585 104.258 38.0935 103.987C38.4099 103.817 39.1897 103.783 46.6367 103.727C55.4962 103.659 55.8578 103.636 58.7847 102.947C61.9827 102.201 65.4067 100.777 68.1753 99.0484C71.848 96.7431 75.4302 93.1609 77.7129 89.4996C79.2272 87.0813 80.7301 83.3747 81.3064 80.6852C83.9508 68.3677 78.6847 55.892 68.0736 49.3152C65.5875 47.767 61.8697 46.2527 59.1576 45.6651C56.1291 45.0097 57.0331 45.0436 41.721 45.021C33.3247 45.0097 27.4146 45.0323 27.1547 45.1001Z" fill="#F9F9F9"/>
</svg>
