<svg width="14" height="20" viewBox="0 0 14 20" fill="none" xmlns="http://www.w3.org/2000/svg">
<path d="M7 1H4C3.20435 1 2.44129 1.31607 1.87868 1.87868C1.31607 2.44129 1 3.20435 1 4C1 4.79565 1.31607 5.55871 1.87868 6.12132C2.44129 6.68393 3.20435 7 4 7H7M7 1V7M7 1H10C10.7956 1 11.5587 1.31607 12.1213 1.87868C12.6839 2.44129 13 3.20435 13 4C13 4.79565 12.6839 5.55871 12.1213 6.12132C11.5587 6.68393 10.7956 7 10 7H7" stroke="#333333" stroke-width="1.5" stroke-linecap="round" stroke-linejoin="round"/>
<path d="M4 13C3.20435 13 2.44129 13.3161 1.87868 13.8787C1.31607 14.4413 1 15.2044 1 16C1 16.7956 1.31607 17.5587 1.87868 18.1213C2.44129 18.6839 3.20435 19 4 19C4.79565 19 5.55871 18.6839 6.12132 18.1213C6.68393 17.5587 7 16.7956 7 16V13M4 13H7M4 13C3.20435 13 2.44129 12.6839 1.87868 12.1213C1.31607 11.5587 1 10.7956 1 10C1 9.20435 1.31607 8.44129 1.87868 7.87868C2.44129 7.31607 3.20435 7 4 7H7V13M7 10C7 9.20435 7.31607 8.44129 7.87868 7.87868C8.44129 7.31607 9.20435 7 10 7C10.7956 7 11.5587 7.31607 12.1213 7.87868C12.6839 8.44129 13 9.20435 13 10C13 10.7956 12.6839 11.5587 12.1213 12.1213C11.5587 12.6839 10.7956 13 10 13C9.20435 13 8.44129 12.6839 7.87868 12.1213C7.31607 11.5587 7 10.7956 7 10Z" stroke="#333333" stroke-width="1.5" stroke-linecap="round" stroke-linejoin="round"/>
</svg>
