<svg width="41" height="41" viewBox="0 0 41 41" fill="none" xmlns="http://www.w3.org/2000/svg">
<rect width="41" height="41" rx="5" fill="#F5F5F5"/>
<path d="M36.6263 19.6813L22.5524 5.60786C21.7424 4.79738 20.4279 4.79738 19.6166 5.60786L16.6944 8.53061L20.4016 12.2378C21.2634 11.947 22.2511 12.142 22.9377 12.8287C23.6279 13.5197 23.8215 14.5158 23.5235 15.3804L27.0964 18.9535C27.9607 18.6555 28.9584 18.8481 29.6483 19.5396C30.6136 20.504 30.6136 22.0675 29.6483 23.0325C29.419 23.262 29.1466 23.4441 28.8469 23.5683C28.5471 23.6925 28.2258 23.7564 27.9013 23.7564C27.5769 23.7564 27.2556 23.6925 26.9558 23.5683C26.6561 23.4441 26.3837 23.262 26.1544 23.0325C25.8098 22.6876 25.575 22.2486 25.4793 21.7705C25.3837 21.2925 25.4315 20.7969 25.6169 20.346L22.285 17.0141L22.2845 25.7832C22.5263 25.9022 22.747 26.0598 22.938 26.2499C23.9027 27.2144 23.9027 28.7774 22.938 29.7439C21.973 30.7084 20.409 30.7084 19.445 29.7439C18.4803 28.7777 18.4803 27.2147 19.445 26.2499C19.6764 26.0187 19.9512 25.8356 20.2537 25.7112V16.8609C19.9509 16.737 19.6759 16.5537 19.445 16.3219C18.7142 15.5916 18.5383 14.5191 18.9131 13.6213L15.2583 9.96645L5.60804 19.6162C5.21871 20.0056 5 20.5338 5 21.0844C5 21.6351 5.21871 22.1633 5.60804 22.5527L19.6822 36.6261C20.4927 37.4366 21.8068 37.4366 22.6185 36.6261L36.6266 22.6181C37.0158 22.2285 37.2345 21.7003 37.2344 21.1496C37.2344 20.5989 37.0156 20.0708 36.6263 19.6813Z" fill="#F34F29"/>
</svg>
