<svg width="39" height="39" viewBox="0 0 39 39" fill="none" xmlns="http://www.w3.org/2000/svg">
<path d="M19.5001 3.24976C17.3661 3.24976 15.2531 3.67007 13.2815 4.48671C11.31 5.30335 9.51859 6.50032 8.00964 8.00927C4.96217 11.0567 3.25012 15.19 3.25012 19.4998C3.25012 26.6823 7.91387 32.776 14.3651 34.9373C15.1776 35.0673 15.4376 34.5635 15.4376 34.1248V31.3785C10.9364 32.3535 9.97762 29.201 9.97762 29.201C9.23012 27.316 8.17387 26.8123 8.17387 26.8123C6.69512 25.8048 8.28762 25.8373 8.28762 25.8373C9.91262 25.951 10.7739 27.511 10.7739 27.511C12.1876 29.981 14.5764 29.2498 15.5026 28.8598C15.6489 27.8035 16.0714 27.0885 16.5264 26.6823C12.9189 26.276 9.13262 24.8785 9.13262 18.6873C9.13262 16.8835 9.75012 15.4373 10.8064 14.2835C10.6439 13.8773 10.0751 12.1873 10.9689 9.99351C10.9689 9.99351 12.3339 9.55476 15.4376 11.651C16.7214 11.2935 18.1189 11.1148 19.5001 11.1148C20.8814 11.1148 22.2789 11.2935 23.5626 11.651C26.6664 9.55476 28.0314 9.99351 28.0314 9.99351C28.9251 12.1873 28.3564 13.8773 28.1939 14.2835C29.2501 15.4373 29.8676 16.8835 29.8676 18.6873C29.8676 24.8948 26.0651 26.2598 22.4414 26.666C23.0264 27.1698 23.5626 28.161 23.5626 29.6723V34.1248C23.5626 34.5635 23.8226 35.0835 24.6514 34.9373C31.1026 32.7598 35.7501 26.6823 35.7501 19.4998C35.7501 17.3658 35.3298 15.2527 34.5132 13.2811C33.6965 11.3096 32.4996 9.51822 30.9906 8.00927C29.4817 6.50032 27.6903 5.30335 25.7187 4.48671C23.7472 3.67007 21.6341 3.24976 19.5001 3.24976Z" fill="#333333"/>
</svg>
