<svg width="41" height="41" viewBox="0 0 41 41" fill="none" xmlns="http://www.w3.org/2000/svg">
<rect width="41" height="41" rx="5" fill="#F5F5F5"/>
<path d="M11.3986 34.9066L9.26221 10.9443H32.7376L30.5991 34.9029L20.9856 37.5679L11.3986 34.9066Z" fill="#E44D26"/>
<path d="M21 35.5308L28.7679 33.3771L30.5957 12.9038H21V35.5308Z" fill="#F16529"/>
<path d="M21 21.791H17.111L16.8427 18.7812H21V15.8423H13.6307L13.7009 16.6309L14.4234 24.7296H21V21.791ZM21 29.4232L20.987 29.4266L17.7142 28.5426L17.5049 26.199H14.5546L14.9663 30.8134L20.9864 32.4848L21 32.4808V29.4232Z" fill="#EBEBEB"/>
<path d="M11.4465 4.43225H12.9399V5.90806H14.3063V4.43225H15.7999V8.90059H14.3063V7.40433H12.9401V8.90059H11.4465V4.43225ZM17.7636 5.91417H16.4488V4.43225H20.5726V5.91417H19.2572V8.90059H17.7636V5.91417ZM21.2271 4.43225H22.7842L23.7423 6.00236L24.6994 4.43225H26.2573V8.90059H24.7695V6.68581L23.7423 8.27452H23.7163L22.6883 6.68581V8.90059H21.2268V4.43225H21.2271ZM27.0007 4.43225H28.4946V7.42372H30.5949V8.90086H27.0007V4.43225Z" fill="black"/>
<path d="M20.9899 21.791V24.7296H24.6087L24.2677 28.541L20.9899 29.4258V32.4832L27.0148 30.8134L27.0589 30.3167L27.7495 22.5799L27.8212 21.791H27.0291H20.9899ZM20.9899 15.8423V18.7812H28.0887L28.1474 18.1206L28.2815 16.6309L28.3519 15.8423H20.9899Z" fill="white"/>
</svg>
