<svg width="41" height="41" viewBox="0 0 41 41" fill="none" xmlns="http://www.w3.org/2000/svg">
<rect width="41" height="41" rx="5" fill="#F0DB4F"/>
<mask id="mask0_843_73" style="mask-type:alpha" maskUnits="userSpaceOnUse" x="0" y="0" width="41" height="41">
<rect width="41" height="41" rx="5" fill="#F5F5F5"/>
</mask>
<g mask="url(#mask0_843_73)">
<path d="M31.3906 0H9.60938C4.30226 0 0 4.30226 0 9.60938V31.3906C0 36.6977 4.30226 41 9.60938 41H31.3906C36.6977 41 41 36.6977 41 31.3906V9.60938C41 4.30226 36.6977 0 31.3906 0Z" fill="#F0DB4F"/>
<path d="M10.7804 34.2626L13.9179 32.3638C14.5233 33.437 15.0739 34.3451 16.3947 34.3451C17.6607 34.3451 18.459 33.8499 18.459 31.9235V18.823H22.312V31.978C22.312 35.9686 19.9728 37.7851 16.5598 37.7851C13.4776 37.7851 11.6885 36.1888 10.7803 34.2623M24.4048 33.8497L27.5419 32.0334C28.3678 33.382 29.4412 34.3728 31.34 34.3728C32.9366 34.3728 33.9546 33.5745 33.9546 32.4736C33.9546 31.1527 32.9087 30.6847 31.1473 29.9143L30.1843 29.5013C27.4045 28.3181 25.5605 26.8318 25.5605 23.6943C25.5605 20.8045 27.7623 18.6027 31.2026 18.6027C33.652 18.6027 35.4134 19.456 36.6793 21.6852L33.6794 23.6117C33.0188 22.4283 32.3035 21.9605 31.2026 21.9605C30.0741 21.9605 29.3586 22.6761 29.3586 23.6117C29.3586 24.7676 30.0741 25.2355 31.7253 25.9513L32.6885 26.364C35.9636 27.7678 37.8076 29.1986 37.8076 32.4185C37.8076 35.8866 35.083 37.7854 31.4227 37.7854C27.8449 37.7854 25.5331 36.0791 24.4048 33.8497Z" fill="#323330"/>
</g>
</svg>
