<svg width="41" height="41" viewBox="0 0 41 41" fill="none" xmlns="http://www.w3.org/2000/svg">
<rect width="41" height="41" rx="5" fill="#F5F5F5"/>
<g clip-path="url(#clip0_843_208)">
<path d="M4 27.5416H5.09364V23.2241L6.78644 26.9876C6.98573 27.4439 7.25875 27.604 7.79552 27.604C8.33228 27.604 8.59422 27.4439 8.79351 26.9876L10.4863 23.2241V27.5414H11.5799V23.2313C11.5799 22.8103 11.4119 22.6068 11.0643 22.5022C10.2334 22.2433 9.67652 22.4669 9.42386 23.0279L7.76329 26.7429L6.15505 23.0279C5.91348 22.4669 5.34552 22.2433 4.51562 22.5022C4.16809 22.6068 4 22.8103 4 23.2313L4 27.5416ZM12.4898 24.0269H13.5824V26.4057C13.5723 26.5346 13.6236 26.8378 14.2228 26.8479H16.6006V24.0148H17.6963C17.7014 24.0148 17.6942 27.8778 17.6942 27.8941C17.7002 28.8467 16.5129 29.0532 15.9651 29.0694H12.513V28.3342L15.9713 28.3331C16.6751 28.2596 16.5916 27.909 16.5916 27.7922V27.5053H14.2682C13.1866 27.4952 12.4988 27.0229 12.4898 26.48C12.4887 26.4307 12.513 24.0511 12.4898 24.0269Z" fill="#00618A"/>
<path d="M18.5383 27.5416H21.6824C22.05 27.5416 22.4076 27.464 22.6914 27.3312C23.1648 27.1147 23.3953 26.8197 23.3953 26.4341V25.6353C23.3953 25.32 23.1333 25.0251 22.6177 24.8297C22.3447 24.724 22.0075 24.6686 21.6821 24.6686H20.3567C19.9156 24.6686 19.7052 24.5355 19.6529 24.2416C19.6428 24.2063 19.6428 24.1782 19.6428 24.1429V23.6453C19.6428 23.6172 19.6428 23.5888 19.6529 23.5538C19.7052 23.3302 19.8209 23.2668 20.2097 23.2315L20.3154 23.2245H23.4373V22.4965H20.368C19.9269 22.4965 19.6954 22.5246 19.4848 22.5872C18.8333 22.7906 18.5492 23.1129 18.5492 23.6739V24.3115C18.5492 24.8018 19.106 25.2228 20.0416 25.3206L20.3569 25.3347H21.4929C21.5351 25.3347 21.5764 25.3347 21.6086 25.3417C21.9551 25.3698 22.1021 25.4332 22.2078 25.5593C22.2622 25.6096 22.2934 25.6812 22.2913 25.7547V26.3933C22.2913 26.4699 22.239 26.5686 22.1343 26.6522C22.0397 26.7367 21.8816 26.7922 21.672 26.8063L21.5563 26.8133H18.5383V27.5416ZM30.2165 26.2727C30.2165 27.0229 30.7744 27.4429 31.8982 27.5274L32.2145 27.5416H35.0636V26.8125H32.1934C31.5519 26.8125 31.3101 26.6514 31.3101 26.2657V22.4949H30.2175V26.2724L30.2165 26.2727ZM24.0934 26.3108V23.7116C24.0934 23.0518 24.5577 22.6512 25.474 22.5251C25.5718 22.511 25.6704 22.5039 25.7692 22.504H27.8438C27.9495 22.504 28.0441 22.5109 28.1501 22.5251C29.0666 22.6509 29.5299 23.0518 29.5299 23.7116V26.3108C29.5299 26.8466 29.3335 27.1327 28.8794 27.3199L29.9571 28.2918H28.6871L27.816 27.5053L26.9389 27.5607H25.7697C25.5524 27.56 25.3362 27.5295 25.1272 27.4699C24.4314 27.2807 24.0939 26.9151 24.0939 26.3108H24.0934ZM25.2737 26.2474C25.2737 26.2827 25.2837 26.3178 25.2948 26.3603C25.3582 26.6625 25.6424 26.8306 26.0742 26.8306H27.0673L26.1549 26.0069H27.4249L28.2205 26.7259C28.3674 26.6473 28.4631 26.5284 28.4974 26.3745C28.5074 26.3392 28.5074 26.3041 28.5074 26.2688V23.7763C28.5074 23.7482 28.5074 23.7128 28.4974 23.6775C28.4339 23.3965 28.1498 23.2354 27.7281 23.2354H26.0744C25.59 23.2354 25.2739 23.4457 25.2739 23.7763L25.2737 26.2474Z" fill="#E48E00"/>
<path d="M36.0253 21.2855C35.3537 21.2675 34.8398 21.3299 34.4008 21.5152C34.276 21.5676 34.0765 21.5686 34.0563 21.7248C34.1249 21.7973 34.136 21.905 34.1904 21.9927C34.2951 22.1629 34.4725 22.3895 34.6305 22.5083L35.1652 22.8909C35.4934 23.0912 35.861 23.2062 36.1784 23.4065C36.3648 23.5254 36.5499 23.6744 36.7322 23.8085C36.8219 23.874 36.8822 23.9776 37.0001 24.0189V23.9998C36.9387 23.9211 36.9225 23.8134 36.866 23.7319L36.6172 23.4831C36.3746 23.1609 36.0663 22.8778 35.7381 22.6421C35.4761 22.4547 34.8922 22.201 34.7823 21.8968L34.7633 21.8777C34.9486 21.8576 35.1662 21.7901 35.3364 21.7447C35.6244 21.6671 35.8811 21.6872 36.1774 21.6106L36.5793 21.4949V21.4193C36.4293 21.2652 36.3225 21.0617 36.1583 20.9217C35.7314 20.5582 35.2639 20.1937 34.7826 19.8895C34.5158 19.7214 34.1865 19.6126 33.9035 19.4695C33.8088 19.4213 33.6415 19.397 33.5781 19.3164C33.4301 19.1271 33.3494 18.8874 33.2347 18.6667L32.5469 17.2144C32.402 16.8831 32.3071 16.5557 32.1258 16.2587C31.2588 14.8317 30.3243 13.9706 28.8769 13.1247C28.5698 12.9445 28.1981 12.8739 27.8075 12.7813L27.1761 12.7432C27.0482 12.6888 26.9152 12.5318 26.7945 12.4562C26.3153 12.153 25.0855 11.4946 24.73 12.3606C24.5065 12.9074 25.0654 13.4411 25.2657 13.7182C25.4057 13.9126 25.5859 14.1302 25.6857 14.3486C25.7522 14.4916 25.7633 14.6355 25.8198 14.7876C25.9587 15.1622 26.0796 15.569 26.2598 15.9155C26.3506 16.0909 26.4501 16.2752 26.5651 16.4312C26.6355 16.5268 26.7564 16.5701 26.7755 16.7181C26.6576 16.8834 26.6507 17.1391 26.5842 17.3485C26.2851 18.29 26.3978 19.4602 26.833 20.1581C26.966 20.3716 27.28 20.8307 27.7121 20.6547C28.0898 20.5005 28.0052 20.0243 28.113 19.6033C28.1383 19.5087 28.1231 19.438 28.1705 19.3746V19.3937L28.5149 20.0815C28.7696 20.4915 29.2208 20.9194 29.6037 21.2084C29.803 21.3585 29.9592 21.6184 30.216 21.706V21.6859H30.1969C30.1466 21.6093 30.069 21.5771 30.0056 21.5147C29.8556 21.3678 29.6893 21.1855 29.5665 21.0171C29.218 20.5448 28.9099 20.0271 28.6299 19.4883C28.4958 19.2315 28.3791 18.9474 28.2664 18.6857C28.2231 18.5849 28.2241 18.4321 28.1334 18.3805C28.0096 18.5718 27.8273 18.727 27.7314 18.9536C27.5783 19.3151 27.5592 19.7572 27.5017 20.2146L27.4636 20.2336C27.1978 20.1692 27.1039 19.8954 27.0054 19.6605C26.7546 19.0663 26.7084 18.1085 26.9289 17.4248C26.9853 17.2477 27.2431 16.6895 27.1385 16.5266C27.0892 16.3634 26.925 16.2688 26.8332 16.144C26.7132 15.9766 26.6107 15.7975 26.5272 15.6093C26.3227 15.1449 26.2271 14.6255 26.0116 14.157C25.909 13.9325 25.7347 13.7058 25.5916 13.5065C25.4325 13.2861 25.2551 13.124 25.1324 12.8569C25.0891 12.7622 25.0298 12.6101 25.0943 12.5124C25.1144 12.4469 25.1445 12.4199 25.209 12.3987C25.3199 12.3131 25.629 12.4268 25.7437 12.4743C26.0508 12.6021 26.3068 12.7231 26.5664 12.8953C26.6901 12.9778 26.8162 13.1379 26.9673 13.1822H27.1395C27.4084 13.2436 27.7095 13.2003 27.9614 13.2768C28.4056 13.4117 28.8044 13.6223 29.1649 13.851C30.2665 14.5458 31.167 15.5358 31.7832 16.7171C31.883 16.9074 31.9253 17.0886 32.0129 17.2902C32.1893 17.697 32.4107 18.116 32.586 18.5138C32.7614 18.9116 32.9315 19.3115 33.1782 19.6417C33.3082 19.815 33.8107 19.9075 34.0383 20.0042C34.1984 20.0717 34.4603 20.1421 34.6114 20.2339C34.9015 20.4082 35.1814 20.6155 35.4534 20.807C35.5883 20.9037 36.0054 21.1133 36.0266 21.2853L36.0253 21.2855ZM27.4821 14.0044C27.3665 14.0025 27.2511 14.0153 27.1387 14.0425V14.0616H27.1578C27.2243 14.1995 27.3421 14.2882 27.4246 14.4061L27.6159 14.807L27.635 14.7889C27.7539 14.7054 27.8072 14.5713 27.8072 14.3679C27.759 14.3176 27.7528 14.2552 27.7116 14.1957C27.6572 14.116 27.5517 14.0719 27.4821 14.0044Z" fill="#00618A"/>
</g>
<defs>
<clipPath id="clip0_843_208">
<rect width="33" height="33" fill="white" transform="translate(4 4)"/>
</clipPath>
</defs>
</svg>
