<svg width="41" height="41" viewBox="0 0 41 41" fill="none" xmlns="http://www.w3.org/2000/svg">
<rect width="41" height="41" rx="5" fill="#F5F5F5"/>
<path d="M20.31 31.432C20.1914 31.432 20.0806 31.4004 19.9778 31.345L18.9256 30.72C18.7673 30.633 18.8464 30.6013 18.894 30.5855C19.1075 30.5143 19.1471 30.4985 19.3686 30.372C19.3924 30.3561 19.424 30.364 19.4477 30.3798L20.2547 30.8624C20.2863 30.8782 20.3259 30.8782 20.3496 30.8624L23.5063 29.0349C23.5379 29.0191 23.5538 28.9874 23.5538 28.9479V25.3008C23.5538 25.2611 23.5379 25.2296 23.5063 25.2137L20.3496 23.3941C20.318 23.3782 20.2784 23.3782 20.2547 23.3941L17.098 25.2137C17.0664 25.2295 17.0505 25.2691 17.0505 25.3007V28.9478C17.0505 28.9795 17.0664 29.019 17.098 29.0349L17.9604 29.5333C18.4272 29.7706 18.7199 29.4937 18.7199 29.2168V25.6171C18.7199 25.5697 18.7594 25.5222 18.8148 25.5222H19.2183C19.2658 25.5222 19.3132 25.5618 19.3132 25.6171V29.2168C19.3132 29.8418 18.973 30.2058 18.3797 30.2058C18.1977 30.2058 18.0553 30.2058 17.6518 30.0079L16.8212 29.5333C16.6155 29.4147 16.4889 29.1931 16.4889 28.9557V25.3086C16.4889 25.0713 16.6155 24.8497 16.8212 24.7311L19.9778 22.9036C20.1756 22.7928 20.4446 22.7928 20.6424 22.9036L23.799 24.7311C24.0047 24.8497 24.1313 25.0713 24.1313 25.3086V28.9557C24.1313 29.1931 24.0047 29.4147 23.799 29.5333L20.6424 31.3608C20.5395 31.4083 20.4208 31.432 20.31 31.432ZM21.2832 28.9241C19.8988 28.9241 19.6139 28.2912 19.6139 27.7533C19.6139 27.7057 19.6535 27.6583 19.7089 27.6583H20.1203C20.1677 27.6583 20.2073 27.6899 20.2073 27.7374C20.2706 28.1567 20.4525 28.3624 21.2911 28.3624C21.9557 28.3624 22.2406 28.2121 22.2406 27.8561C22.2406 27.6504 22.1614 27.5001 21.125 27.3972C20.2627 27.3102 19.7247 27.1203 19.7247 26.4321C19.7247 25.7912 20.2627 25.4114 21.1646 25.4114C22.1772 25.4114 22.6757 25.7596 22.739 26.519C22.739 26.5428 22.7311 26.5665 22.7152 26.5903C22.6993 26.6061 22.6757 26.6219 22.6519 26.6219H22.2405C22.2009 26.6219 22.1614 26.5903 22.1535 26.5507C22.0586 26.1156 21.8133 25.9732 21.1646 25.9732C20.4367 25.9732 20.3497 26.2264 20.3497 26.4162C20.3497 26.6456 20.4525 26.7168 21.4335 26.8434C22.4066 26.97 22.8655 27.152 22.8655 27.8323C22.8576 28.5285 22.288 28.9241 21.2832 28.9241Z" fill="#539E43"/>
<path d="M10.5158 17.1678C10.5158 17.0254 10.4367 16.8908 10.3101 16.8196L6.95571 14.8893C6.90026 14.8576 6.83701 14.8418 6.77376 14.8338H6.74207C6.67882 14.8338 6.6155 14.8576 6.56012 14.8893L3.2057 16.8196C3.07906 16.8908 3 17.0253 3 17.1678L3.00794 22.3576C3.00794 22.4288 3.04751 22.5 3.11076 22.5317C3.17407 22.5712 3.25314 22.5712 3.30858 22.5317L5.30225 21.3924C5.42881 21.3212 5.50795 21.1867 5.50795 21.0443V18.6155C5.50795 18.4731 5.58701 18.3386 5.71364 18.2674L6.56012 17.7769C6.62344 17.7374 6.69463 17.7215 6.76582 17.7215C6.83701 17.7215 6.9082 17.7374 6.96365 17.7769L7.81012 18.2674C7.93676 18.3386 8.01582 18.4731 8.01582 18.6155V21.0443C8.01582 21.1867 8.09495 21.3212 8.22152 21.3924L10.2152 22.5317C10.246 22.5511 10.2816 22.5613 10.318 22.5613C10.3544 22.5613 10.3901 22.5511 10.4209 22.5317C10.4842 22.5 10.5238 22.4288 10.5238 22.3576L10.5158 17.1678ZM26.6392 10.0238C26.576 9.99208 26.4968 9.99208 26.4414 10.0238C26.3781 10.0633 26.3386 10.1266 26.3386 10.1978V15.3402C26.3386 15.3877 26.3149 15.4351 26.2674 15.4668C26.2199 15.4905 26.1725 15.4905 26.125 15.4668L25.2864 14.9842C25.2249 14.9492 25.1554 14.9308 25.0846 14.9308C25.0139 14.9308 24.9444 14.9492 24.8829 14.9842L21.5285 16.9225C21.4019 16.9937 21.3228 17.1282 21.3228 17.2706V21.1392C21.3228 21.2816 21.4019 21.4162 21.5285 21.4874L24.8829 23.4256C24.9444 23.4606 25.0139 23.479 25.0846 23.479C25.1554 23.479 25.2249 23.4606 25.2864 23.4256L28.6408 21.4874C28.7674 21.4162 28.8465 21.2817 28.8465 21.1392V11.4953C28.8465 11.345 28.7674 11.2105 28.6408 11.1393L26.6392 10.0238ZM26.3307 19.8655C26.3307 19.9051 26.3149 19.9367 26.2832 19.9525L25.1361 20.6171C25.1201 20.6249 25.1025 20.629 25.0846 20.629C25.0668 20.629 25.0492 20.6249 25.0332 20.6171L23.8861 19.9525C23.8544 19.9367 23.8386 19.8972 23.8386 19.8655V18.5364C23.8386 18.4968 23.8544 18.4652 23.8861 18.4494L25.0332 17.7848C25.0492 17.777 25.0668 17.7729 25.0846 17.7729C25.1025 17.7729 25.1201 17.777 25.1361 17.7848L26.2832 18.4494C26.3149 18.4651 26.3307 18.5048 26.3307 18.5364V19.8655ZM37.8022 18.5048C37.9288 18.4336 38 18.2991 38 18.1566V17.2152C38 17.0728 37.9209 16.9383 37.8022 16.8671L34.4715 14.9368C34.41 14.9018 34.3405 14.8834 34.2697 14.8834C34.199 14.8834 34.1295 14.9018 34.068 14.9368L30.7136 16.875C30.5869 16.9462 30.5079 17.0807 30.5079 17.2231V21.0918C30.5079 21.2342 30.587 21.3687 30.7136 21.4399L34.0442 23.3386C34.1709 23.4098 34.3212 23.4098 34.4399 23.3386L36.4572 22.2153C36.5205 22.1836 36.5601 22.1124 36.5601 22.0412C36.5601 21.97 36.5205 21.8988 36.4572 21.8671L33.087 19.9288C33.0237 19.8893 32.9841 19.826 32.9841 19.7548V18.5444C32.9841 18.4732 33.0237 18.402 33.087 18.3703L34.1392 17.769C34.17 17.7497 34.2056 17.7394 34.242 17.7394C34.2784 17.7394 34.3141 17.7497 34.3449 17.769L35.3971 18.3703C35.4604 18.4099 35.4999 18.4731 35.4999 18.5444V19.4938C35.4999 19.565 35.5395 19.6361 35.6028 19.6678C35.6336 19.6872 35.6693 19.6975 35.7057 19.6975C35.7421 19.6975 35.7777 19.6872 35.8085 19.6678L37.8022 18.5048Z" fill="#333333"/>
<path d="M34.2183 18.3228C34.2301 18.315 34.2438 18.3109 34.2579 18.3109C34.2719 18.3109 34.2857 18.315 34.2974 18.3228L34.9383 18.6946C34.962 18.7105 34.9778 18.7342 34.9778 18.7658V19.5095C34.9778 19.5412 34.962 19.5649 34.9383 19.5807L34.2974 19.9526C34.2857 19.9603 34.2719 19.9644 34.2579 19.9644C34.2438 19.9644 34.2301 19.9603 34.2183 19.9526L33.5775 19.5807C33.5538 19.5649 33.538 19.5412 33.538 19.5095V18.7659C33.538 18.7342 33.5537 18.7104 33.5775 18.6947L34.2183 18.3228Z" fill="#539E43"/>
<path d="M16.1248 14.9527C16.0633 14.9177 15.9938 14.8993 15.9231 14.8993C15.8524 14.8993 15.7828 14.9177 15.7214 14.9527L12.3907 16.875C12.2641 16.9462 12.1929 17.0807 12.1929 17.2231V21.076C12.1929 21.2183 12.272 21.3529 12.3907 21.424L15.7214 23.3465C15.7828 23.3815 15.8524 23.3999 15.9231 23.3999C15.9938 23.3999 16.0633 23.3815 16.1248 23.3465L19.4556 21.424C19.5821 21.3529 19.6534 21.2183 19.6534 21.076V17.2231C19.6534 17.0808 19.5742 16.9463 19.4556 16.8751L16.1248 14.9527Z" fill="url(#paint0_linear_843_199)"/>
<mask id="mask0_843_199" style="mask-type:luminance" maskUnits="userSpaceOnUse" x="12" y="14" width="8" height="10">
<path d="M16.1248 14.9527C16.0633 14.9177 15.9938 14.8993 15.9231 14.8993C15.8524 14.8993 15.7828 14.9177 15.7214 14.9527L12.3907 16.875C12.2641 16.9462 12.1929 17.0807 12.1929 17.2231V21.076C12.1929 21.2183 12.272 21.3529 12.3907 21.424L15.7214 23.3465C15.7828 23.3815 15.8524 23.3999 15.9231 23.3999C15.9938 23.3999 16.0633 23.3815 16.1248 23.3465L19.4556 21.424C19.5821 21.3529 19.6534 21.2183 19.6534 21.076V17.2231C19.6534 17.0808 19.5742 16.9463 19.4556 16.8751L16.1248 14.9527Z" fill="white"/>
</mask>
<g mask="url(#mask0_843_199)">
<path d="M19.4635 16.8751L16.1171 14.9527C16.0842 14.936 16.0497 14.9228 16.0142 14.9131L12.2642 21.3372C12.2952 21.3751 12.3328 21.4072 12.375 21.4321L15.7215 23.3546C15.8164 23.41 15.9272 23.4258 16.03 23.3941L19.5506 16.9543C19.5269 16.9226 19.4952 16.8987 19.4635 16.8751Z" fill="url(#paint1_linear_843_199)"/>
</g>
<mask id="mask1_843_199" style="mask-type:luminance" maskUnits="userSpaceOnUse" x="12" y="14" width="8" height="10">
<path d="M16.1248 14.9527C16.0633 14.9177 15.9938 14.8993 15.9231 14.8993C15.8524 14.8993 15.7828 14.9177 15.7214 14.9527L12.3907 16.875C12.2641 16.9462 12.1929 17.0807 12.1929 17.2231V21.076C12.1929 21.2183 12.272 21.3529 12.3907 21.424L15.7214 23.3465C15.7828 23.3815 15.8524 23.3999 15.9231 23.3999C15.9938 23.3999 16.0633 23.3815 16.1248 23.3465L19.4556 21.424C19.5821 21.3529 19.6534 21.2183 19.6534 21.076V17.2231C19.6534 17.0808 19.5742 16.9463 19.4556 16.8751L16.1248 14.9527Z" fill="white"/>
</mask>
<g mask="url(#mask1_843_199)">
<path fill-rule="evenodd" clip-rule="evenodd" d="M19.4716 21.424C19.5666 21.3687 19.6377 21.2737 19.6694 21.1709L15.9984 14.9051C15.9035 14.8893 15.8006 14.8971 15.7137 14.9525L12.3909 16.8671L15.9747 23.4019C16.0268 23.3934 16.0774 23.3774 16.125 23.3545L19.4716 21.424Z" fill="url(#paint2_linear_843_199)"/>
<path fill-rule="evenodd" clip-rule="evenodd" d="M19.4716 21.424L16.133 23.3465C16.0858 23.3705 16.035 23.3865 15.9827 23.394L16.046 23.5126L19.7485 21.3687V21.3212L19.6535 21.163C19.6377 21.2737 19.5665 21.3687 19.4716 21.424Z" fill="url(#paint3_linear_843_199)"/>
<path fill-rule="evenodd" clip-rule="evenodd" d="M19.4716 21.424L16.133 23.3465C16.0858 23.3705 16.035 23.3865 15.9827 23.394L16.046 23.5126L19.7485 21.3687V21.3212L19.6535 21.163C19.6377 21.2737 19.5665 21.3687 19.4716 21.424Z" fill="url(#paint4_linear_843_199)"/>
</g>
<defs>
<linearGradient id="paint0_linear_843_199" x1="520.911" y1="163.549" x2="155.841" y2="737.186" gradientUnits="userSpaceOnUse">
<stop stop-color="#41873F"/>
<stop offset="0.3288" stop-color="#418B3D"/>
<stop offset="0.6352" stop-color="#419637"/>
<stop offset="0.9319" stop-color="#3FA92D"/>
<stop offset="1" stop-color="#3FAE2A"/>
</linearGradient>
<linearGradient id="paint1_linear_843_199" x1="327.6" y1="483.693" x2="1241.91" y2="-13.0551" gradientUnits="userSpaceOnUse">
<stop offset="0.1376" stop-color="#41873F"/>
<stop offset="0.4032" stop-color="#54A044"/>
<stop offset="0.7136" stop-color="#66B848"/>
<stop offset="0.9081" stop-color="#6CC04A"/>
</linearGradient>
<linearGradient id="paint2_linear_843_199" x1="-19.5548" y1="440.073" x2="751.159" y2="440.073" gradientUnits="userSpaceOnUse">
<stop offset="0.09192" stop-color="#6CC04A"/>
<stop offset="0.2864" stop-color="#66B848"/>
<stop offset="0.5968" stop-color="#54A044"/>
<stop offset="0.8624" stop-color="#41873F"/>
</linearGradient>
<linearGradient id="paint3_linear_843_199" x1="-375.139" y1="139.293" x2="395.566" y2="139.293" gradientUnits="userSpaceOnUse">
<stop offset="0.09192" stop-color="#6CC04A"/>
<stop offset="0.2864" stop-color="#66B848"/>
<stop offset="0.5968" stop-color="#54A044"/>
<stop offset="0.8624" stop-color="#41873F"/>
</linearGradient>
<linearGradient id="paint4_linear_843_199" x1="507.848" y1="-474.782" x2="312.598" y2="548.32" gradientUnits="userSpaceOnUse">
<stop stop-color="#41873F"/>
<stop offset="0.3288" stop-color="#418B3D"/>
<stop offset="0.6352" stop-color="#419637"/>
<stop offset="0.9319" stop-color="#3FA92D"/>
<stop offset="1" stop-color="#3FAE2A"/>
</linearGradient>
</defs>
</svg>
