<svg width="41" height="41" viewBox="0 0 41 41" fill="none" xmlns="http://www.w3.org/2000/svg">
<rect width="41" height="41" rx="5" fill="#242938"/>
<path d="M20.5003 23.5351C22.1506 23.5351 23.4882 22.1973 23.4882 20.5472C23.4882 18.8971 22.1506 17.5593 20.5003 17.5593C18.8501 17.5593 17.5125 18.8971 17.5125 20.5472C17.5125 22.1973 18.8502 23.5351 20.5003 23.5351Z" fill="#00D8FF"/>
<path d="M20.5003 14.4722C24.5119 14.4722 28.2386 15.0478 31.0485 16.0153C34.4341 17.1808 36.5156 18.9475 36.5156 20.5473C36.5156 22.2143 34.3096 24.0912 30.6739 25.2957C27.9253 26.2064 24.3084 26.6817 20.5003 26.6817C16.596 26.6817 12.8988 26.2355 10.1192 25.2857C6.60244 24.0837 4.48438 22.1826 4.48438 20.5473C4.48438 18.9604 6.47191 17.2074 9.80989 16.0437C12.6302 15.0603 16.4488 14.4722 20.4997 14.4722H20.5003Z" stroke="#00D8FF" stroke-width="1.42715"/>
<path d="M15.2118 17.5272C17.216 14.0521 19.5762 11.1113 21.818 9.16062C24.5189 6.81 27.0894 5.88942 28.4751 6.68844C29.9192 7.52126 30.4431 10.3701 29.6703 14.1213C29.0866 16.9572 27.691 20.3278 25.7885 23.6267C23.8379 27.0089 21.6046 29.9888 19.3933 31.9215C16.5952 34.3674 13.89 35.2526 12.4734 34.4357C11.0988 33.6435 10.5732 31.0456 11.2327 27.5727C11.7899 24.6381 13.1882 21.0364 15.2111 17.5272H15.2118Z" stroke="#00D8FF" stroke-width="1.42715"/>
<path d="M15.2169 23.6354C13.2071 20.1642 11.8388 16.6501 11.2676 13.7336C10.5801 10.2196 11.0662 7.53302 12.4507 6.7316C13.8936 5.89622 16.6231 6.86517 19.487 9.40813C21.6523 11.3306 23.8758 14.2226 25.7837 17.5183C27.7399 20.8973 29.2059 24.3206 29.7763 27.2015C30.4979 30.8473 29.9138 33.6329 28.4985 34.4521C27.1254 35.2471 24.6123 34.4055 21.9328 32.0995C19.6688 30.1514 17.2466 27.1413 15.2169 23.6354Z" stroke="#00D8FF" stroke-width="1.42715"/>
</svg>
