<svg width="41" height="41" viewBox="0 0 41 41" fill="none" xmlns="http://www.w3.org/2000/svg">
<mask id="mask0_843_22" style="mask-type:alpha" maskUnits="userSpaceOnUse" x="0" y="0" width="41" height="41">
<rect width="41" height="41" rx="5" fill="#F5F5F5"/>
</mask>
<g mask="url(#mask0_843_22)">
<path d="M32.9844 -3H8.01562C1.93186 -3 -3 1.93186 -3 8.01562V32.9844C-3 39.0681 1.93186 44 8.01562 44H32.9844C39.0681 44 44 39.0681 44 32.9844V8.01562C44 1.93186 39.0681 -3 32.9844 -3Z" fill="#CD6799"/>
<mask id="mask1_843_22" style="mask-type:luminance" maskUnits="userSpaceOnUse" x="2" y="6" width="37" height="29">
<path d="M2.14062 6.73047H38.8594V34.2528H2.14062V6.73047Z" fill="white"/>
</mask>
<g mask="url(#mask1_843_22)">
<path d="M33.7385 22.5495C32.4581 22.5562 31.3455 22.8646 30.4138 23.3203C30.072 22.6434 29.7301 22.0401 29.6697 21.5976C29.6027 21.0815 29.5223 20.7665 29.6027 20.1498C29.6831 19.5331 30.0451 18.6552 30.0384 18.5881C30.0316 18.5211 29.9579 18.2061 29.2206 18.1993C28.4833 18.1925 27.8466 18.3401 27.7728 18.5345C27.699 18.7288 27.5584 19.1712 27.4646 19.6271C27.3371 20.2974 25.9897 22.6904 25.219 23.9438C24.971 23.4545 24.7565 23.0254 24.7095 22.6836C24.6425 22.1675 24.5621 21.8524 24.6425 21.2358C24.7229 20.6191 25.085 19.7409 25.0782 19.6739C25.0714 19.6069 24.9978 19.2919 24.2605 19.2853C23.5232 19.2786 22.8863 19.4259 22.8127 19.6203C22.7388 19.8147 22.6584 20.2706 22.5042 20.7129C22.3502 21.1553 20.5605 25.1503 20.0912 26.1825C19.9017 26.6002 19.7028 27.0137 19.4947 27.4225C19.4947 27.4225 19.488 27.4427 19.4679 27.4761C19.4025 27.6043 19.3354 27.7317 19.2667 27.8582V27.865C19.1663 28.046 19.0589 28.2134 19.0053 28.2134C18.9651 28.2134 18.8915 27.7309 19.0187 27.074C19.2869 25.6864 19.9236 23.5281 19.917 23.4545C19.917 23.4143 20.0376 23.0388 19.5014 22.8444C18.9785 22.65 18.7908 22.9718 18.7438 22.9718C18.697 22.9718 18.6634 23.0858 18.6634 23.0858C18.6634 23.0858 19.2467 20.6593 17.5509 20.6593C16.4917 20.6593 15.0305 21.8188 14.3068 22.8646C13.4838 23.3124 12.6614 23.7615 11.8398 24.2118C11.4445 24.433 11.0357 24.6543 10.6534 24.8621C10.6266 24.8353 10.5998 24.8017 10.573 24.7749C8.5219 22.583 4.72812 21.0347 4.88895 18.0921C4.94935 17.0195 5.318 14.2043 12.175 10.7858C17.8189 8.00415 22.31 8.77488 23.0875 10.4841C24.2001 12.9241 20.6811 17.4552 14.8496 18.1121C12.6241 18.3601 11.4579 17.5022 11.1631 17.1805C10.8546 16.8453 10.8076 16.8253 10.6936 16.8923C10.506 16.9927 10.6266 17.2944 10.6936 17.4686C10.868 17.9245 11.5852 18.7288 12.7983 19.1242C13.8709 19.4729 16.4783 19.6673 19.6354 18.4473C23.1679 17.0799 25.9295 13.2792 25.1184 10.0955C24.3075 6.86459 18.9451 5.79882 13.8709 7.6019C10.8545 8.67445 7.58355 10.3635 5.2308 12.5621C2.43558 15.1764 1.99331 17.4486 2.17433 18.4003C2.82443 21.7786 7.48294 23.9772 9.34642 25.606C9.2526 25.6596 9.1654 25.7066 9.09177 25.7468C8.16004 26.2093 4.6075 28.066 3.72258 30.0301C2.71722 32.2554 3.88359 33.8507 4.65431 34.0651C7.04728 34.7288 9.50725 33.5356 10.8278 31.5649C12.1484 29.5942 11.9874 27.0338 11.3773 25.8608C11.3707 25.8461 11.3616 25.8325 11.3505 25.8206C11.592 25.6798 11.8398 25.5324 12.0812 25.3916C12.5248 25.1295 12.974 24.8769 13.4284 24.6341C13.2006 25.2576 13.033 26.0015 12.9526 27.074C12.8521 28.3342 13.3682 29.9697 14.0451 30.6132C14.3468 30.8946 14.702 30.9014 14.9301 30.9014C15.721 30.9014 16.0762 30.2445 16.4717 29.467C16.9542 28.5151 17.39 27.4091 17.39 27.4091C17.39 27.4091 16.847 30.3987 18.3216 30.3987C18.8579 30.3987 19.4007 29.7016 19.6422 29.3464V29.353C19.6422 29.353 19.6556 29.333 19.6824 29.286C19.736 29.1988 19.7694 29.1452 19.7694 29.1452V29.1318C19.984 28.7565 20.4665 27.9052 21.1838 26.4908C22.1088 24.6677 23.0003 22.3887 23.0003 22.3887C23.0003 22.3887 23.0807 22.945 23.3555 23.87C23.5164 24.413 23.8516 25.0095 24.1197 25.586C23.9052 25.8877 23.7712 26.0551 23.7712 26.0551L23.7778 26.0619C23.6036 26.2897 23.4159 26.5378 23.2081 26.779C22.4774 27.6505 21.6061 28.6493 21.4855 28.9375C21.3446 29.2794 21.3782 29.5272 21.6463 29.7284C21.8407 29.8759 22.1892 29.8959 22.5444 29.8759C23.2013 29.8289 23.664 29.668 23.8918 29.5674C24.2471 29.4402 24.6627 29.2458 25.0514 28.9575C25.7687 28.428 26.2044 27.6705 26.1642 26.6718C26.144 26.1221 25.9629 25.5726 25.7419 25.0563C25.8089 24.9625 25.8691 24.8687 25.9361 24.7749C27.0691 23.1192 27.947 21.3028 27.947 21.3028C27.947 21.3028 28.0275 21.8591 28.3023 22.7842C28.4363 23.2533 28.7112 23.7627 28.9526 24.2588C27.8868 25.1235 27.2299 26.1289 26.9953 26.7858C26.573 28.0058 26.9015 28.5553 27.5248 28.6827C27.8064 28.7431 28.2085 28.6091 28.5035 28.4816C28.8788 28.361 29.3212 28.1532 29.7435 27.8448C30.4606 27.3153 31.1511 26.578 31.1109 25.5792C31.0907 25.1235 30.9701 24.6743 30.8025 24.2386C31.7074 23.8633 32.8738 23.6555 34.3618 23.8297C37.5525 24.2052 38.1826 26.1959 38.0618 27.0338C37.9411 27.8716 37.2708 28.3274 37.0496 28.4682C36.8286 28.6091 36.7548 28.6559 36.775 28.7565C36.8018 28.9039 36.909 28.8971 37.0966 28.8703C37.3581 28.8235 38.7723 28.1934 38.8327 26.6518C38.9333 24.6811 37.0564 22.5294 33.7385 22.5495ZM9.12519 30.8478C8.06622 32.0006 6.59159 32.4364 5.95471 32.0678C5.271 31.6721 5.53905 29.9697 6.83963 28.7497C7.63037 28.0058 8.64931 27.3153 9.32622 26.893C9.48044 26.7992 9.70828 26.6652 9.98312 26.4976C10.0301 26.4707 10.0569 26.4573 10.0569 26.4573L10.2178 26.3567C10.6936 28.0996 10.2378 29.6346 9.12519 30.8478ZM16.8337 25.606C16.4651 26.5043 15.6944 28.8033 15.2251 28.6761C14.823 28.5687 14.575 26.826 15.1447 25.1033C15.4329 24.2386 16.0428 23.2064 16.3981 22.8042C16.9746 22.1607 17.6113 21.9463 17.7655 22.2077C17.9599 22.5495 17.0618 25.0429 16.8337 25.606ZM23.1949 28.6493C23.0407 28.7297 22.8933 28.7833 22.8262 28.7431C22.7792 28.7163 22.8933 28.6091 22.8933 28.6091C22.8933 28.6091 23.691 27.7509 24.006 27.3623C24.1869 27.1343 24.4015 26.8662 24.6293 26.5646V26.6518C24.6293 27.6773 23.6374 28.3676 23.1949 28.6493ZM28.1014 27.5297C27.9874 27.4493 28.0076 27.1813 28.3897 26.3433C28.5371 26.0149 28.8858 25.4654 29.4822 24.9357C29.5493 25.1503 29.5963 25.358 29.5895 25.5524C29.5829 26.8462 28.6577 27.3287 28.1014 27.5297Z" fill="white"/>
</g>
</g>
</svg>
