<svg width="41" height="41" viewBox="0 0 41 41" fill="none" xmlns="http://www.w3.org/2000/svg">
<rect width="41" height="41" rx="5" fill="#242938"/>
<path fill-rule="evenodd" clip-rule="evenodd" d="M13.293 17.6172C14.2539 13.7734 16.6562 11.8516 20.5 11.8516C26.2656 11.8516 26.9863 16.1758 29.8691 16.8965C31.791 17.3772 33.4727 16.6565 34.9141 14.7344C33.9531 18.5781 31.5508 20.5 27.707 20.5C21.9414 20.5 21.2207 16.1758 18.3379 15.4551C16.416 14.9746 14.7344 15.6953 13.293 17.6172ZM6.08594 26.2656C7.04688 22.4219 9.44922 20.5 13.293 20.5C19.0586 20.5 19.7793 24.8242 22.6621 25.5449C24.584 26.0256 26.2656 25.3049 27.707 23.3828C26.7461 27.2266 24.3438 29.1484 20.5 29.1484C14.7344 29.1484 14.0137 24.8242 11.1309 24.1035C9.20898 23.6228 7.52734 24.3435 6.08594 26.2656Z" fill="url(#paint0_linear_975_13)"/>
<defs>
<linearGradient id="paint0_linear_975_13" x1="13.8535" y1="11.8516" x2="26.1855" y2="29.709" gradientUnits="userSpaceOnUse">
<stop stop-color="#32B1C1"/>
<stop offset="1" stop-color="#14C6B7"/>
</linearGradient>
</defs>
</svg>
