<svg width="41" height="41" viewBox="0 0 41 41" fill="none" xmlns="http://www.w3.org/2000/svg">
<rect x="0.25" y="0.25" width="40.5" height="40.5" rx="4.75" fill="#F5F5F5" stroke="#787878" stroke-width="0.5"/>
<rect width="41" height="41" rx="5" fill="#F5F5F5"/>
<path d="M22.6397 10.6507C18.9817 14.3087 15.9364 17.3015 15.8489 17.3015C15.7789 17.3015 13.8711 15.8488 11.6309 14.0636C9.37312 12.2784 7.4479 10.8258 7.34289 10.8258C7.23788 10.8258 6.43278 11.1758 5.57518 11.6133L4 12.4009V20.8019V29.2029L5.57518 29.9905C6.43278 30.428 7.22037 30.7781 7.32539 30.7781C7.4129 30.7781 9.09309 29.5354 11.0358 28.0128C12.996 26.4901 14.8863 25.0199 15.2538 24.7399L15.9189 24.2498L22.6397 30.9531L29.3429 37.6564L33.5609 35.9412L37.7789 34.226L37.7439 20.7494L37.6914 7.27284L33.5784 5.62765C31.3207 4.73505 29.4304 3.99997 29.3779 3.99997C29.3254 3.99997 26.2976 6.99281 22.6397 10.6507ZM29.3779 20.8194C29.3779 24.6699 29.3079 27.6277 29.2204 27.5927C28.9054 27.4702 20.4694 20.8894 20.5044 20.7844C20.5569 20.6269 29.0804 14.0111 29.2554 13.9936C29.3254 13.9761 29.3779 17.0565 29.3779 20.8194ZM12.401 20.8194C12.401 20.8894 11.2633 22.1146 9.86318 23.5497L7.34289 26.14L7.32539 20.8894V15.6388L9.86318 18.1766C11.2633 19.5768 12.401 20.7669 12.401 20.8194Z" fill="#156BC1"/>
</svg>
