<svg width="41" height="41" viewBox="0 0 41 41" fill="none" xmlns="http://www.w3.org/2000/svg">
<rect width="41" height="41" rx="5" fill="#0073AA"/>
<path d="M6.76099 20.499C6.76099 25.9371 9.92135 30.6367 14.5041 32.8639L7.95047 14.9078C7.16505 16.6671 6.75972 18.5723 6.76099 20.499ZM29.7745 19.8057C29.7745 18.1079 29.1646 16.932 28.6415 16.0167C27.945 14.885 27.2922 13.9267 27.2922 12.795C27.2922 11.532 28.2501 10.3565 29.5993 10.3565C29.6603 10.3565 29.7179 10.364 29.7774 10.3674C27.3331 8.12806 24.0766 6.7608 20.4997 6.7608C15.7001 6.7608 11.4773 9.22337 9.02079 12.9534C9.34303 12.963 9.64685 12.9699 9.90486 12.9699C11.3419 12.9699 13.5663 12.7953 13.5663 12.7953C14.3069 12.7518 14.3944 13.8395 13.6544 13.9272C13.6544 13.9272 12.9102 14.0148 12.082 14.0582L17.085 28.9396L20.0916 19.9223L17.9511 14.0577C17.2113 14.0143 16.5105 13.9267 16.5105 13.9267C15.7701 13.8833 15.8569 12.7513 16.5973 12.795C16.5973 12.795 18.8661 12.9693 20.216 12.9693C21.653 12.9693 23.8775 12.795 23.8775 12.795C24.6187 12.7513 24.7057 13.8391 23.9656 13.9267C23.9656 13.9267 23.2198 14.0143 22.3932 14.0577L27.3582 28.8263L28.7285 24.2471C29.3225 22.3467 29.7745 20.9819 29.7745 19.8057Z" fill="white"/>
<path d="M20.7408 21.7009L16.6187 33.6789C17.8789 34.0501 19.1859 34.2386 20.4997 34.2387C22.0536 34.2392 23.5962 33.9758 25.0619 33.4598C25.0238 33.3998 24.9911 33.3364 24.9642 33.2705L20.7408 21.7009ZM32.5548 13.9077C32.6172 14.3759 32.6482 14.8478 32.6474 15.3202C32.6474 16.7144 32.387 18.2817 31.6027 20.2414L27.4061 32.3746C31.4906 29.9928 34.2379 25.5678 34.2379 20.4994C34.2381 18.1106 33.628 15.8644 32.5548 13.9077Z" fill="white"/>
<path d="M20.4997 4.48438C11.669 4.48438 4.48438 11.6685 4.48438 20.499C4.48438 29.3307 11.669 36.5145 20.4997 36.5145C29.3299 36.5145 36.5156 29.3307 36.5156 20.499C36.5153 11.6685 29.3299 4.48438 20.4997 4.48438ZM20.4997 35.7805C12.0739 35.7805 5.21869 28.9252 5.21869 20.499C5.21869 12.0734 12.0737 5.21869 20.4997 5.21869C28.925 5.21869 35.7797 12.0734 35.7797 20.499C35.7797 28.9252 28.925 35.7805 20.4997 35.7805Z" fill="white"/>
</svg>
